<?xml version="1.0" standalone="no"?>
<!DOCTYPE svg PUBLIC "-//W3C//DTD SVG 20010904//EN"
 "http://www.w3.org/TR/2001/REC-SVG-20010904/DTD/svg10.dtd">
<svg version="1.0" xmlns="http://www.w3.org/2000/svg"
 width="1588.000000pt" height="1512.000000pt" viewBox="0 0 1588.000000 1512.000000"
 preserveAspectRatio="xMidYMid meet">

<g transform="translate(0.000000,1512.000000) scale(0.100000,-0.100000)"
fill="#000000" stroke="none">
<path d="M11205 14332 c-33 -31 -150 -144 -260 -251 -110 -107 -285 -278 -390
-380 -104 -102 -278 -271 -385 -376 -107 -104 -281 -273 -385 -375 -361 -351
-580 -564 -685 -667 l-105 -103 -275 40 c-151 22 -401 59 -555 82 -154 22
-298 41 -320 41 -34 0 -1045 -142 -1127 -159 -24 -5 -65 32 -440 398 -227 222
-575 560 -773 753 -198 192 -519 505 -713 695 -195 190 -360 346 -367 348 -8
2 -73 -140 -183 -395 -94 -219 -277 -645 -407 -948 l-237 -550 32 -830 c18
-456 42 -1080 54 -1385 l22 -555 -263 -925 c-146 -509 -352 -1231 -459 -1605
-107 -374 -193 -685 -192 -692 3 -13 119 -135 380 -398 l169 -171 39 -229 c21
-127 59 -347 84 -490 69 -395 134 -771 166 -960 51 -296 51 -295 74 -310 19
-12 799 -409 1295 -658 l183 -92 322 -304 c176 -168 492 -467 701 -665 209
-199 470 -446 580 -551 110 -104 377 -358 593 -562 l392 -373 72 0 73 0 165
157 c91 86 246 234 345 328 182 173 361 343 890 844 160 151 340 322 400 380
61 58 262 250 449 426 l338 320 744 376 c409 206 746 378 750 382 4 4 17 66
30 139 12 73 46 266 74 428 76 437 198 1148 222 1288 l21 123 271 276 c149
151 274 281 277 287 4 6 -17 94 -46 196 -29 102 -236 824 -460 1605 l-406
1420 25 670 c14 369 33 837 41 1040 9 204 22 525 30 715 l13 345 -173 405
c-95 223 -277 647 -404 943 -127 296 -231 542 -231 547 0 24 -21 13 -75 -38z
m-6631 -280 c213 -206 910 -885 1091 -1062 105 -102 346 -338 538 -524 191
-186 347 -341 346 -345 0 -6 -386 -335 -397 -338 -8 -2 -11 2 -412 567 -150
212 -289 407 -309 434 -19 27 -260 302 -534 610 -275 309 -502 567 -504 573
-4 10 44 143 64 176 8 14 17 7 117 -91z m6689 7 l37 -90 -122 -137 c-860 -962
-881 -986 -965 -1102 -232 -317 -685 -930 -691 -934 -6 -3 -323 261 -374 312
-17 16 -4 31 255 281 149 146 360 350 467 455 107 105 366 358 575 561 209
204 465 454 570 557 104 103 195 188 200 188 6 0 27 -41 48 -91z m-6631 -570
c167 -187 304 -347 306 -354 2 -8 -115 -194 -258 -414 l-262 -401 22 -187
c116 -1012 105 -903 85 -878 -9 11 -64 94 -121 185 -58 91 -184 287 -279 435
-410 638 -387 598 -371 631 8 16 55 126 106 244 50 118 106 249 125 290 18 41
101 236 185 433 84 196 154 357 156 357 1 0 139 -153 306 -341z m6836 91 c55
-129 184 -430 287 -669 157 -365 185 -437 176 -455 -6 -12 -63 -102 -127 -201
-122 -188 -476 -740 -598 -932 -39 -61 -72 -108 -74 -104 -2 7 26 445 62 946
l14 190 -143 230 c-79 127 -186 299 -238 384 l-96 155 26 30 c120 144 599 673
605 668 3 -4 51 -113 106 -242z m-3380 -1404 c122 -18 225 -36 229 -40 7 -6
-5 -620 -32 -1731 -8 -319 -15 -624 -15 -677 l0 -97 -207 -162 c-114 -89 -212
-162 -219 -163 -10 -1 -381 283 -418 319 -10 10 -14 102 -20 372 -3 197 -11
549 -16 783 -5 234 -14 634 -20 889 -6 255 -9 466 -6 468 3 3 78 16 168 29 90
14 188 29 218 33 87 13 102 12 338 -23z m3832 -512 c-11 -286 -29 -739 -40
-1009 -11 -269 -22 -568 -26 -662 -4 -95 -9 -173 -11 -173 -5 0 -92 73 -552
465 -194 165 -360 305 -368 312 -13 10 7 46 144 260 87 136 319 497 514 801
194 304 355 547 357 539 2 -8 -6 -248 -18 -533z m-7949 201 c116 -181 263
-411 327 -510 63 -99 154 -241 202 -315 107 -166 96 -145 168 -323 l61 -147
-297 -252 c-163 -139 -362 -308 -442 -376 l-145 -123 -6 33 c-4 18 -9 112 -13
208 -3 96 -17 461 -31 810 -13 349 -29 768 -35 930 -5 162 -12 319 -15 348 -3
33 -2 52 4 50 6 -1 105 -151 222 -333z m3260 5 c11 -423 10 -680 -2 -680 -5 0
-76 18 -157 39 -81 22 -207 56 -280 75 -73 20 -141 36 -151 36 -16 0 -19 -13
-25 -112 -25 -433 -56 -912 -60 -915 -4 -4 -278 209 -692 536 -66 53 -162 128
-212 166 -50 39 -91 73 -92 77 0 5 685 592 1081 926 24 19 62 28 266 57 131
19 245 37 253 39 8 2 26 3 40 3 l25 -2 6 -245z m1319 239 c36 -6 154 -23 263
-39 l199 -28 51 -43 c29 -24 95 -79 147 -124 52 -45 277 -236 500 -425 223
-188 409 -346 413 -350 8 -7 -38 -44 -518 -420 -143 -112 -307 -241 -365 -287
-58 -46 -107 -83 -110 -83 -3 0 -11 87 -18 193 -34 544 -54 832 -58 836 -5 5
-45 -4 -361 -88 -127 -33 -237 -61 -244 -61 -9 0 -10 76 -5 328 9 454 16 602
30 602 6 0 40 -5 76 -11z m-1705 -958 c39 -11 142 -38 230 -61 88 -23 163 -45
166 -48 4 -4 12 -218 18 -477 6 -258 14 -548 17 -644 5 -149 4 -173 -8 -168
-24 9 -570 439 -575 453 -3 7 2 118 11 246 8 128 20 314 26 413 15 260 20 305
33 305 7 0 44 -9 82 -19z m2090 7 c5 -17 55 -861 55 -918 l-1 -45 -166 -130
c-92 -71 -220 -172 -285 -224 -66 -51 -122 -91 -125 -87 -3 3 0 294 7 646 l13
640 66 19 c36 11 138 38 226 61 87 22 161 43 164 45 9 10 42 4 46 -7z m-2934
-588 c297 -233 537 -425 532 -427 -4 -1 -118 -23 -253 -48 -239 -45 -376 -71
-825 -156 l-220 -41 -430 71 c-237 40 -440 75 -452 79 -20 6 -3 24 148 152 95
80 224 190 288 244 64 55 202 172 306 260 105 88 226 191 269 229 44 37 83 66
88 65 4 -2 251 -194 549 -428z m4482 223 c133 -115 299 -255 368 -313 387
-322 501 -424 483 -432 -11 -4 -213 -40 -451 -79 l-432 -72 -223 42 c-247 47
-521 99 -853 161 -121 23 -222 44 -224 46 -3 3 4 11 15 18 10 8 111 87 224
176 113 88 279 219 370 290 91 71 233 183 315 249 83 66 154 120 158 120 5 1
117 -92 250 -206z m-3250 -1188 l538 -420 -5 -845 -4 -844 -113 -263 c-62
-145 -114 -261 -116 -259 -11 10 -103 608 -103 667 0 26 14 154 30 284 l31
236 -99 117 c-54 64 -243 291 -420 505 -252 303 -327 387 -344 387 -73 -2
-1205 105 -1214 114 -6 6 -23 76 -38 156 -14 80 -35 187 -45 238 -10 51 -15
95 -11 97 3 2 105 22 226 45 120 22 300 56 399 74 99 19 292 55 430 81 137 26
252 49 255 51 2 3 18 4 35 2 23 -2 164 -107 568 -423z m2135 359 c469 -88 680
-128 850 -160 79 -15 145 -32 147 -38 2 -6 -17 -119 -43 -251 l-47 -240 -295
-26 c-162 -15 -434 -39 -605 -53 -170 -15 -319 -29 -330 -31 -30 -6 -851
-1001 -848 -1029 1 -11 16 -128 33 -258 l32 -237 -20 -128 c-89 -568 -86 -554
-95 -542 -2 2 -53 121 -113 264 l-111 260 -6 841 -6 842 456 358 c251 198 495
389 542 426 48 37 92 68 99 68 8 0 170 -30 360 -66z m-4903 -74 c132 -23 335
-56 450 -75 116 -19 222 -37 236 -40 22 -5 27 -14 37 -63 6 -31 36 -190 67
-352 31 -162 76 -398 101 -523 24 -126 46 -252 49 -280 l6 -52 -162 -105 c-90
-58 -166 -106 -170 -108 -3 -2 -267 94 -585 213 -319 119 -646 241 -729 272
-82 31 -153 59 -158 62 -4 4 36 158 88 342 53 184 102 358 111 387 14 51 22
59 196 207 109 93 189 155 202 155 12 0 129 -18 261 -40z m7213 -111 c97 -84
180 -157 184 -163 14 -24 219 -759 215 -771 -3 -6 -130 -58 -284 -115 -153
-56 -323 -120 -378 -141 -467 -177 -807 -299 -817 -293 -79 45 -328 217 -328
225 0 7 18 104 40 218 159 821 190 987 190 1002 0 10 5 21 11 25 13 8 920 162
962 163 21 1 65 -32 205 -150z m-5616 -698 c290 -26 529 -49 531 -52 296 -357
475 -573 600 -724 151 -181 158 -191 152 -225 -3 -19 -16 -114 -28 -210 l-23
-175 -249 -42 c-136 -24 -251 -41 -253 -38 -3 3 -24 71 -48 152 -23 82 -63
220 -89 308 -26 88 -58 203 -72 255 -14 52 -31 101 -38 108 -8 9 -91 22 -246
37 -556 57 -735 76 -746 80 -7 2 -13 13 -13 23 0 11 -20 120 -44 243 -24 123
-47 245 -51 271 l-7 47 48 -5 c27 -3 286 -27 576 -53z m4180 30 c-3 -28 -104
-555 -106 -558 -2 -2 -110 -14 -242 -27 -637 -66 -749 -79 -754 -87 -3 -4 -59
-192 -124 -416 -65 -224 -120 -409 -121 -411 -2 -2 -115 16 -253 39 l-250 42
-10 66 c-6 36 -19 132 -28 212 l-18 146 74 89 c549 668 683 824 714 829 17 2
112 12 211 21 99 9 340 31 535 49 195 18 360 31 365 30 6 -1 9 -12 7 -24z
m-6417 -501 c72 -26 211 -78 310 -114 99 -37 196 -73 215 -81 71 -29 551 -205
560 -205 36 0 2 -31 -122 -113 -225 -148 -509 -335 -1131 -745 -318 -210 -582
-382 -586 -382 -5 0 0 28 9 63 15 53 422 1474 465 1624 l15 53 68 -26 c37 -14
126 -47 197 -74z m8505 -620 c246 -859 292 -1022 288 -1025 -2 -1 -66 39 -143
90 -324 215 -1098 725 -1394 920 -176 116 -319 214 -318 219 2 4 255 102 562
217 308 115 612 229 675 253 63 24 118 41 122 37 3 -3 97 -323 208 -711z
m-6570 35 c128 -198 240 -368 249 -377 11 -12 79 -27 231 -52 205 -35 432 -76
438 -81 2 -2 -53 -262 -129 -603 -21 -92 -22 -94 -47 -87 -26 6 -202 69 -576
204 l-210 76 -31 60 c-18 33 -137 265 -265 515 -128 250 -239 465 -246 477
-14 22 -9 26 158 138 135 90 175 112 184 102 6 -6 116 -174 244 -372z m4595
267 c88 -57 162 -106 164 -108 3 -2 -248 -493 -488 -956 l-66 -127 -155 -55
c-85 -30 -263 -93 -395 -140 -132 -47 -244 -86 -250 -86 -5 0 -34 111 -63 248
-30 136 -64 292 -77 347 -13 55 -23 101 -22 102 3 2 258 47 475 84 l192 32
251 388 c153 236 256 386 263 382 6 -4 83 -53 171 -111z m-5279 -238 c144
-267 514 -1007 508 -1013 -14 -13 -694 -324 -698 -320 -3 4 -7 33 -67 469 -78
575 -89 655 -89 681 0 23 20 40 153 127 83 56 157 100 162 99 6 -2 19 -21 31
-43z m5725 -55 c84 -56 155 -103 157 -104 2 -2 -13 -117 -32 -256 -19 -140
-51 -373 -71 -519 -48 -354 -53 -392 -59 -397 -3 -3 -20 1 -38 10 -135 63
-508 235 -573 265 -44 20 -83 39 -88 42 -4 3 48 114 116 246 68 131 190 368
271 527 81 158 151 287 155 287 4 0 77 -45 162 -101z m-6141 -639 c28 -206 58
-427 67 -490 9 -63 16 -139 17 -168 l1 -52 -185 -86 c-338 -157 -584 -271
-640 -297 -30 -13 -153 -70 -273 -126 -120 -55 -222 -101 -226 -101 -6 0 -204
199 -410 412 l-74 77 33 115 33 115 231 152 c274 181 916 604 1176 776 l185
123 7 -38 c4 -20 30 -206 58 -412z m7218 -71 c428 -282 784 -519 793 -528 18
-18 72 -202 67 -231 -3 -18 -462 -490 -476 -490 -4 0 -120 52 -257 116 -138
64 -326 151 -420 194 -219 100 -649 301 -653 305 -2 2 27 224 118 894 16 124
30 230 30 238 0 7 5 13 11 13 6 0 360 -230 787 -511z m-4574 234 c3 -21 19
-121 35 -223 16 -102 44 -275 61 -385 l32 -200 -81 -380 c-45 -209 -86 -398
-91 -420 -6 -22 -26 -114 -45 -205 -19 -91 -52 -248 -74 -350 -22 -102 -54
-250 -71 -330 -71 -333 -102 -464 -115 -489 -12 -24 -11 -31 18 -81 17 -30 40
-69 52 -86 11 -17 74 -119 140 -227 l120 -197 235 -2 235 -3 3 -177 c2 -162 1
-177 -15 -182 -19 -5 -220 -42 -518 -96 -93 -16 -203 -36 -242 -44 l-73 -14
-69 132 c-38 72 -173 334 -301 581 -128 248 -253 488 -278 534 l-45 85 16 70
c9 39 37 166 62 281 25 116 64 293 86 395 55 252 100 456 154 705 25 116 59
271 75 345 16 74 54 250 85 390 65 300 116 524 118 526 2 0 424 74 479 83 3 1
9 -16 12 -36z m1271 3 c83 -14 184 -32 225 -39 l75 -12 21 -100 c12 -55 47
-217 78 -360 32 -143 73 -330 91 -415 19 -85 54 -247 79 -360 25 -113 90 -414
146 -670 55 -256 111 -512 125 -570 13 -58 30 -136 36 -175 12 -69 12 -71 -18
-125 -17 -30 -169 -323 -338 -650 -169 -327 -311 -600 -316 -606 -6 -8 -70 0
-216 27 -115 21 -287 52 -383 70 -96 17 -200 37 -230 43 l-55 11 0 175 0 175
248 1 c136 1 252 5 257 10 11 12 320 513 333 541 7 16 7 26 -1 36 -12 14 -35
107 -82 327 -70 332 -163 766 -190 890 -29 132 -58 265 -158 736 l-50 231 23
144 c13 79 42 263 64 409 23 146 44 271 46 278 3 7 13 11 22 8 10 -2 86 -16
168 -30z m-665 -346 c34 -80 70 -163 80 -185 10 -22 43 -99 73 -170 58 -136
70 -186 272 -1140 19 -88 63 -295 99 -460 36 -165 63 -301 62 -303 -2 -2 -23
28 -46 65 -24 37 -48 71 -54 75 -6 4 -257 8 -557 8 -496 0 -548 -2 -560 -17
-8 -9 -31 -43 -51 -77 -21 -34 -38 -53 -38 -44 0 9 34 174 75 365 42 191 93
431 115 533 22 102 57 268 79 370 22 102 54 253 72 335 29 137 43 177 161 454
132 311 147 345 153 339 1 -1 31 -68 65 -148z m-1957 -304 c128 -46 300 -108
382 -137 83 -29 153 -55 157 -58 4 -3 -2 -44 -13 -91 -11 -47 -38 -166 -59
-265 -43 -200 -81 -374 -200 -920 -44 -203 -88 -405 -98 -447 -9 -43 -20 -78
-25 -78 -7 0 -929 846 -1063 975 -38 36 -42 46 -48 105 -6 57 -69 524 -80 589
-4 26 -18 19 519 266 154 71 282 133 283 137 2 5 6 8 8 8 3 0 109 -38 237 -84z
m4122 25 c61 -29 119 -57 130 -61 39 -16 520 -241 545 -255 18 -10 25 -22 23
-42 -1 -30 -57 -462 -75 -581 l-11 -74 -326 -300 c-179 -166 -353 -326 -386
-357 -33 -31 -116 -108 -185 -170 -69 -63 -144 -133 -167 -154 l-41 -39 -21
93 c-12 52 -41 186 -65 299 -61 278 -131 601 -245 1122 -34 152 -61 283 -61
292 0 9 6 16 13 16 6 0 179 60 382 134 204 74 372 133 375 132 3 -1 55 -25
115 -55z m-5295 -404 c0 -7 18 -148 40 -312 22 -164 40 -304 40 -310 0 -6 -28
-56 -61 -110 -34 -55 -85 -138 -114 -185 -29 -47 -95 -155 -147 -240 -52 -85
-200 -326 -328 -535 -128 -209 -256 -418 -285 -465 -29 -47 -69 -113 -90 -148
-21 -34 -41 -59 -45 -55 -4 4 -14 53 -24 108 -9 55 -36 217 -61 360 -25 143
-63 364 -85 490 -21 127 -60 349 -85 495 -26 146 -49 279 -52 295 -5 28 -2 32
44 52 85 37 680 314 1018 473 116 54 216 99 223 99 6 1 12 -5 12 -12z m6507
-158 c202 -94 491 -227 641 -296 191 -89 272 -131 272 -142 0 -16 -32 -208
-115 -681 -123 -708 -185 -1072 -185 -1082 0 -18 -17 -6 -34 25 -20 34 -142
234 -371 607 -76 124 -259 422 -407 663 l-268 439 24 171 c14 95 32 228 41
297 17 135 23 170 29 170 2 0 170 -77 373 -171z m-6235 -895 c65 -137 147
-312 184 -388 l66 -139 -21 -241 c-35 -402 -100 -1166 -107 -1248 -4 -43 -10
-78 -14 -78 -4 0 -54 24 -111 53 -57 30 -344 175 -636 323 -293 148 -533 272
-533 276 0 3 47 82 104 175 113 183 502 819 765 1250 91 150 170 271 176 269
5 -1 62 -115 127 -252z m6237 -594 c380 -620 515 -848 507 -856 -18 -19 -1268
-646 -1274 -640 -3 3 -18 151 -33 329 -68 772 -99 1155 -99 1200 0 42 24 100
182 433 99 212 185 383 189 382 5 -2 242 -383 528 -848z m-5948 538 c96 -90
310 -287 474 -439 l300 -276 304 -589 c168 -324 330 -637 360 -695 56 -105 56
-106 211 -240 86 -74 163 -140 173 -148 10 -8 134 -30 310 -55 l292 -41 3
-503 c2 -378 -1 -502 -10 -502 -6 0 -45 20 -87 44 -94 54 -720 409 -1010 573
l-105 58 -138 293 c-76 161 -233 494 -349 740 -117 246 -232 490 -256 542 -25
52 -62 131 -83 175 -21 44 -76 161 -123 260 -253 538 -431 913 -443 938 -8 15
-11 27 -7 27 5 0 87 -73 184 -162z m5175 130 c-7 -18 -56 -123 -109 -233 -134
-284 -615 -1302 -972 -2060 -171 -363 -254 -538 -285 -600 -28 -56 6 -34 -530
-337 -151 -86 -371 -210 -488 -276 l-212 -120 2 506 3 507 292 42 292 41 172
149 171 149 289 560 c160 307 322 621 362 697 39 77 83 148 97 159 14 11 54
48 90 82 36 34 232 216 437 404 205 188 375 347 378 352 15 24 24 7 11 -22z
m-2063 -797 l128 -205 -17 -31 c-9 -17 -23 -40 -30 -50 -14 -19 -15 -19 -28 0
-8 11 -61 85 -118 165 l-104 145 -434 3 -435 2 -125 -165 c-134 -178 -127
-174 -168 -105 l-20 35 130 208 131 207 480 -2 481 -3 129 -204z m-2771 -609
c142 -301 323 -686 404 -857 81 -170 195 -413 255 -540 l108 -230 78 -46 c43
-25 220 -126 393 -224 173 -98 434 -246 580 -329 l265 -151 3 -403 c1 -221 -1
-402 -5 -402 -3 0 -36 28 -72 63 -36 34 -412 391 -836 792 -1684 1597 -1555
1472 -1555 1513 0 21 9 139 20 262 36 408 90 1050 90 1075 0 14 3 25 8 25 4 0
123 -247 264 -548z m4612 253 c14 -154 39 -442 56 -640 16 -198 32 -382 36
-410 l5 -50 -322 -305 c-430 -406 -743 -703 -859 -815 -111 -107 -1223 -1159
-1263 -1194 l-27 -24 0 405 0 405 113 63 c61 35 256 145 432 245 176 100 422
240 548 310 125 71 227 132 227 136 0 4 46 103 101 220 114 241 165 348 219
464 21 44 58 123 83 175 24 52 83 176 130 275 46 99 108 230 137 290 66 140
294 623 328 695 14 30 27 50 28 45 2 -6 14 -136 28 -290z m-1949 -991 c176
-31 322 -59 325 -61 2 -2 -8 -14 -22 -26 -15 -12 -66 -55 -113 -96 l-86 -74
-297 -44 c-336 -50 -267 -51 -688 10 l-231 34 -107 93 c-58 51 -106 96 -106
100 0 4 30 13 68 19 90 16 611 109 692 125 56 10 78 10 155 -6 50 -9 234 -43
410 -74z"/>
</g>
</svg>
